<mxfile host="app.diagrams.net" modified="2023-06-12T23:17:30.411Z" agent="Mozilla/5.0 (Windows NT 10.0; Win64; x64) AppleWebKit/537.36 (KHTML, like Gecko) Chrome/114.0.0.0 Safari/537.36" etag="5ENxXyffD6w3af5EL1TB" version="21.3.8" type="github">
  <diagram name="PÃ¡gina-1" id="PdCBFJR6PD7fbApHcqxk">
    <mxGraphModel dx="1050" dy="573" grid="1" gridSize="10" guides="1" tooltips="1" connect="1" arrows="1" fold="1" page="1" pageScale="1" pageWidth="827" pageHeight="1169" math="0" shadow="0">
      <root>
        <mxCell id="0" />
        <mxCell id="1" parent="0" />
        <mxCell id="5v1VqlVGLzsazY5bpy-z-1" value="PROFESSOR" style="shape=umlActor;verticalLabelPosition=bottom;verticalAlign=top;html=1;" vertex="1" parent="1">
          <mxGeometry x="400" y="270" width="30" height="60" as="geometry" />
        </mxCell>
        <mxCell id="5v1VqlVGLzsazY5bpy-z-57" value="Aluno" style="shape=umlActor;verticalLabelPosition=bottom;verticalAlign=top;html=1;" vertex="1" parent="1">
          <mxGeometry x="400" y="410" width="30" height="60" as="geometry" />
        </mxCell>
        <mxCell id="5v1VqlVGLzsazY5bpy-z-61" value="coordenador de Controle Academico" style="shape=umlActor;verticalLabelPosition=bottom;verticalAlign=top;html=1;" vertex="1" parent="1">
          <mxGeometry x="400" y="550" width="30" height="60" as="geometry" />
        </mxCell>
      </root>
    </mxGraphModel>
  </diagram>
</mxfile>
